<?xml version="1.0" standalone="no"?>
<!DOCTYPE svg PUBLIC "-//W3C//DTD SVG 20010904//EN"
 "http://www.w3.org/TR/2001/REC-SVG-20010904/DTD/svg10.dtd">
<svg version="1.0" xmlns="http://www.w3.org/2000/svg"
 width="850.000000pt" height="965.000000pt" viewBox="0 0 850.000000 965.000000"
 preserveAspectRatio="xMidYMid meet">
<metadata>
Created by potrace 1.16, written by Peter Selinger 2001-2019
</metadata>
<g transform="translate(0.000000,965.000000) scale(0.100000,-0.100000)"
fill="#000000" stroke="none">
<path d="M 398.31,253.95
           C 397.94,254.82 397.81,280.82 397.94,311.81
             397.94,311.81 398.31,368.05 398.31,368.05
             398.31,368.05 419.82,368.92 419.82,368.92
             468.35,370.80 505.99,377.92 539.63,391.54
             580.65,408.17 607.54,431.79 629.67,471.03
             655.18,516.27 666.69,575.38 666.69,661.61
             666.69,721.48 661.94,763.72 650.81,801.96
             646.93,815.21 647.80,816.83 656.31,812.33
             680.19,799.83 704.83,777.46 720.21,754.34
             743.72,718.98 756.48,679.23 763.73,619.00
             766.49,595.38 766.99,507.02 764.36,482.40
             760.48,445.53 752.35,408.54 742.72,384.55
             724.34,337.93 693.20,302.56 653.43,282.69
             619.17,265.69 576.40,256.20 523.50,253.70
             484.48,251.82 399.06,252.07 398.31,253.95 Z
           M 51.65,59.74
           C 51.65,59.74 2.50,116.73 2.50,116.73
             2.50,116.73 2.50,661.36 2.50,661.36
             2.50,661.36 2.50,1206.00 2.50,1206.00
             2.50,1206.00 249.87,1205.63 249.87,1205.63
             249.87,1205.63 497.11,1205.25 497.11,1205.25
             497.11,1205.25 516.49,1202.50 516.49,1202.50
             545.13,1198.38 568.52,1194.00 590.40,1188.50
             703.83,1160.13 796.50,1100.65 861.78,1014.16
             875.91,995.42 884.54,982.17 883.29,980.92
             882.79,980.42 875.91,984.67 867.91,990.54
             802.50,1039.28 716.71,1072.90 626.29,1085.40
             580.90,1091.65 591.65,1091.40 339.28,1091.90
             339.28,1091.90 102.55,1092.40 102.55,1092.40
             102.55,1092.40 102.55,548.14 102.55,548.14
             102.55,248.82 102.17,3.62 101.67,3.37
             101.05,3.00 78.54,28.37 51.65,59.74 Z"/>
</g>
</svg>
