<?xml version="1.0" standalone="no"?>
<!DOCTYPE svg PUBLIC "-//W3C//DTD SVG 20010904//EN"
 "http://www.w3.org/TR/2001/REC-SVG-20010904/DTD/svg10.dtd">
<svg version="1.0" xmlns="http://www.w3.org/2000/svg"
 width="850.000000pt" height="965.000000pt" viewBox="0 0 850.000000 965.000000"
 preserveAspectRatio="xMidYMid meet">
<metadata>
Created by potrace 1.16, written by Peter Selinger 2001-2019
</metadata>
<g transform="translate(0.000000,965.000000) scale(0.100000,-0.100000)"
fill="#000000" stroke="none">
<path d="M 800.25,1080.65
           C 798.63,1082.65 798.75,1082.78 800.75,1081.15
             801.88,1080.28 802.88,1079.28 802.88,1079.03
             802.88,1078.03 801.88,1078.65 800.25,1080.65 Z
           M 819.76,1062.53
           C 819.76,1062.53 812.26,1070.40 812.26,1070.40
             812.26,1070.40 820.14,1062.90 820.14,1062.90
             824.39,1058.78 827.89,1055.28 827.89,1055.16
             827.89,1054.16 826.64,1055.28 819.76,1062.53 Z
           M 838.39,1042.53
           C 838.39,1042.53 836.02,1045.41 836.02,1045.41
             836.02,1045.41 838.89,1043.03 838.89,1043.03
             840.40,1041.66 841.65,1040.41 841.65,1040.16
             841.65,1039.16 840.65,1039.91 838.39,1042.53 Z
           M 18.63,95.86
           C 17.01,97.85 17.13,97.98 19.13,96.36
             21.13,94.73 21.76,93.73 20.76,93.73
             20.51,93.73 19.51,94.73 18.63,95.86 Z
           M 26.14,87.11
           C 24.51,89.11 24.64,89.23 26.64,87.61
             28.64,85.98 29.26,84.98 28.26,84.98
             28.01,84.98 27.01,85.98 26.14,87.11 Z
           M 33.64,78.36
           C 32.02,80.36 32.14,80.48 34.14,78.86
             36.14,77.23 36.77,76.23 35.77,76.23
             35.52,76.23 34.52,77.23 33.64,78.36 Z
           M 49.90,59.61
           C 48.27,61.61 48.40,61.74 50.40,60.11
             52.40,58.49 53.02,57.49 52.02,57.49
             51.77,57.49 50.77,58.49 49.90,59.61 Z
           M 57.40,50.86
           C 55.78,52.86 55.90,52.99 57.90,51.36
             59.90,49.74 60.53,48.74 59.53,48.74
             59.28,48.74 58.28,49.74 57.40,50.86 Z
           M 64.91,42.12
           C 63.28,44.12 63.40,44.24 65.41,42.62
             66.53,41.74 67.53,40.74 67.53,40.49
             67.53,39.49 66.53,40.12 64.91,42.12 Z
           M 72.41,33.37
           C 70.78,35.37 70.91,35.49 72.91,33.87
             74.91,32.24 75.54,31.24 74.54,31.24
             74.28,31.24 73.28,32.24 72.41,33.37 Z
           M 88.67,14.62
           C 87.04,16.62 87.17,16.75 89.17,15.12
             91.17,13.50 91.79,12.50 90.79,12.50
             90.54,12.50 89.54,13.50 88.67,14.62 Z
           M 96.17,5.87
           C 94.54,7.87 94.67,8.00 96.67,6.37
             98.67,4.75 99.30,3.75 98.30,3.75
             98.05,3.75 97.05,4.75 96.17,5.87 Z
           M 598.41,429.91
           C 601.78,433.29 604.78,436.16 605.16,436.16
             605.53,436.16 603.03,433.29 599.66,429.91
             596.28,426.41 593.28,423.66 592.90,423.66
             592.53,423.66 595.03,426.41 598.41,429.91 Z
           M 101.80,2.75
           C 102.17,4.37 102.55,250.20 102.55,549.01
             102.55,549.01 102.55,1092.40 102.55,1092.40
             102.55,1092.40 339.28,1091.90 339.28,1091.90
             591.65,1091.40 580.90,1091.65 626.29,1085.40
             716.46,1072.90 803.13,1039.03 867.28,991.04
             874.91,985.30 881.91,980.67 882.92,980.55
             885.29,980.17 898.42,968.17 920.43,946.18
             999.22,867.45 1046.74,761.97 1061.12,633.99
             1062.87,619.12 1063.13,603.87 1062.62,539.01
             1062.25,462.78 1062.12,461.53 1058.87,440.53
             1048.37,373.30 1033.24,323.06 1007.97,271.82
             962.08,178.71 893.17,108.85 800.75,61.86
             740.22,30.99 671.57,11.62 595.28,3.87
             562.51,0.50 528.87,0.00 319.65,0.00
             319.65,0.00 101.05,0.00 101.05,0.00
             101.05,0.00 101.80,2.75 101.80,2.75 Z
           M 523.50,253.70
           C 587.90,256.70 636.42,269.94 674.07,294.69
             680.07,298.69 690.32,307.44 697.83,314.93
             730.34,347.55 749.60,389.04 759.61,448.66
             765.11,481.15 765.99,494.90 765.99,548.64
             765.86,601.88 764.86,617.75 758.98,650.24
             745.48,725.72 714.34,776.59 662.81,807.33
             656.43,811.08 651.18,813.46 649.81,813.08
             648.56,812.71 646.68,813.21 645.80,814.21
             642.18,817.71 609.91,828.08 588.90,832.33
             560.76,838.08 549.26,838.83 472.60,839.45
             472.60,839.45 399.31,840.08 399.31,840.08
             399.31,840.08 398.69,547.26 398.69,547.26
             398.31,386.17 398.31,253.95 398.56,253.32
             399.31,252.07 493.48,252.32 523.50,253.70 Z"/>
</g>
</svg>
